<?xml version="1.0" encoding="UTF-8"?>
<svg version="1.1" xmlns="http://www.w3.org/2000/svg" width="2000" height="679">
<path d="M0 0 C223.08 0 446.16 0 676 0 C678.475 12.375 678.475 12.375 681 25 C682.30735272 29.95290214 683.62353836 34.76588314 685.1875 39.625 C685.56986816 40.82809814 685.95223633 42.03119629 686.34619141 43.27075195 C693.78022238 66.06854739 703.70686141 88.106132 720 106 C720.75539063 106.84820312 721.51078125 107.69640625 722.2890625 108.5703125 C736.87262171 124.10394072 754.92691103 130.11609569 775.1875 134.625 C777.06528141 135.05016194 778.94288161 135.47612492 780.8203125 135.90283203 C784.80261091 136.8061641 788.78634958 137.70278948 792.77099609 138.59570312 C798.03960361 139.77912781 803.30147662 140.99004222 808.56182861 142.20957947 C862.35399523 157.68774359 862.35399523 157.68774359 915.4375 149.875 C921.61935369 145.48870547 923.84740742 139.72835167 925.12527466 132.40116882 C925.29722855 131.3537426 925.29722855 131.3537426 925.47265625 130.28515625 C925.66273758 129.16878532 925.66273758 129.16878532 925.85665894 128.02986145 C926.98272965 121.32435065 927.96368014 114.59842579 928.94018555 107.86987305 C931.36706646 91.20414553 934.30186245 74.6854275 937.6875 58.1875 C937.87959045 57.24538666 938.07168091 56.30327332 938.26959229 55.33261108 C940.16003153 46.10148161 942.04991331 36.96264433 945 28 C945.66 28 946.32 28 947 28 C948.47747198 34.0052587 949.95233714 40.01115025 951.42504883 46.01757812 C951.92372568 48.04996972 952.42304824 50.08220301 952.9230957 52.11425781 C955.64106283 63.16130244 958.3164236 74.21678724 960.86328125 85.3046875 C961.18730171 86.70232834 961.18730171 86.70232834 961.51786804 88.12820435 C961.81126823 89.41801712 961.81126823 89.41801712 962.1105957 90.73388672 C962.28307327 91.48789764 962.45555084 92.24190857 962.633255 93.01876831 C963 95 963 95 963 98 C964.175625 97.54625 965.35125 97.0925 966.5625 96.625 C987.07282716 89.96703226 1016.90377322 89.6065517 1037 98 C1037.10952499 97.28570328 1037.21904999 96.57140656 1037.33189392 95.83546448 C1038.56343061 88.10093208 1040.18114536 80.51711973 1042.00390625 72.90234375 C1042.28725327 71.70565567 1042.57060028 70.50896759 1042.86253357 69.27601624 C1043.45653933 66.77056332 1044.0524335 64.26555742 1044.65014648 61.76098633 C1045.56719681 57.91781665 1046.47841902 54.07330037 1047.38867188 50.22851562 C1047.96841473 47.78637872 1048.54848119 45.3443186 1049.12890625 42.90234375 C1049.40182999 41.7524144 1049.67475372 40.60248505 1049.95594788 39.41770935 C1050.33655617 37.82443565 1050.33655617 37.82443565 1050.72485352 36.19897461 C1050.9475441 35.26476181 1051.17023468 34.33054901 1051.39967346 33.36802673 C1051.85851 31.55811644 1052.40955049 29.77134853 1053 28 C1053.66 28 1054.32 28 1055 28 C1058.41408976 40.01249512 1061.00743374 52.13044005 1063.4375 64.375 C1063.63353821 65.35545288 1063.82957642 66.33590576 1064.03155518 67.34606934 C1066.60883106 80.2730998 1068.96325027 93.20754569 1070.875 106.25 C1070.97416718 106.92552917 1071.07333435 107.60105835 1071.17550659 108.29705811 C1071.79401326 112.52990874 1072.39838365 116.7647218 1073 121 C1074.66597274 136.13535547 1074.66597274 136.13535547 1082.6796875 148.5390625 C1099.181144 160.24756483 1125.39127317 155.67315768 1143.9765625 152.5234375 C1161.76600815 149.26349515 1179.38487976 145.08004827 1197 141 C1197.85505127 140.80241089 1198.71010254 140.60482178 1199.59106445 140.40124512 C1208.81837891 138.26850403 1218.04341687 136.12505415 1227.25 133.90429688 C1229.89913802 133.26546828 1232.54958959 132.6374153 1235.203125 132.01757812 C1242.21852129 130.35521548 1248.98325269 128.68768108 1255.375 125.25 C1256.03580566 124.90565918 1256.69661133 124.56131836 1257.37744141 124.20654297 C1263.14839595 121.10453147 1268.17369988 117.4385461 1273 113 C1274.20849609 111.92878906 1274.20849609 111.92878906 1275.44140625 110.8359375 C1297.13162939 90.53741882 1308.77836159 60.38563335 1316.75 32.4375 C1317.01973633 31.49422852 1317.28947266 30.55095703 1317.56738281 29.57910156 C1320.24778092 19.77961898 1321.99287551 10.03562246 1324 0 C1547.08 0 1770.16 0 2000 0 C2000 0.66 2000 1.32 2000 2 C1999.29955566 2.22961426 1998.59911133 2.45922852 1997.87744141 2.69580078 C1970.27950275 11.81198288 1943.29850809 22.6116043 1917 35 C1915.91444824 35.50998535 1914.82889648 36.0199707 1913.71044922 36.54541016 C1868.78576088 57.73353347 1825.03230898 82.81000355 1787 115 C1785.96926194 115.85738666 1784.9379844 116.71412505 1783.90625 117.5703125 C1767.00744469 131.65180498 1750.59506937 146.659083 1737 164 C1735.56340689 165.70909604 1734.1258785 167.41740628 1732.6875 169.125 C1721.55574356 182.80778396 1712.31524771 197.46143678 1704 213 C1703.61859863 213.7105957 1703.23719727 214.42119141 1702.84423828 215.15332031 C1676.08011702 265.96689861 1675.13750886 323.97983123 1691.078125 378.10546875 C1692.31966418 382.00369134 1693.75480798 385.81681579 1695.24804688 389.625 C1696 392 1696 392 1696 396 C1694.84741699 395.86424561 1693.69483398 395.72849121 1692.50732422 395.58862305 C1670.28660775 392.99063257 1648.07995863 390.6713933 1625.75 389.25 C1624.84231873 389.19137787 1623.93463745 389.13275574 1622.99945068 389.07235718 C1616.66848584 388.66897043 1610.33583446 388.31740992 1604 388 C1602.57083252 387.9274147 1602.57083252 387.9274147 1601.11279297 387.85336304 C1581.24475484 386.87879475 1561.38661147 386.79968003 1541.5 386.8125 C1540.67599072 386.81261959 1539.85198143 386.81273918 1539.00300217 386.8128624 C1513.69654423 386.8175006 1488.45545611 387.0510327 1463.20141602 388.84503174 C1460.98948681 389.00074007 1458.77711181 389.14753878 1456.56445312 389.29248047 C1371.58377448 394.93992878 1285.40314697 411.36052584 1099.52734375 514.62109375 C1097.37580212 516.64626972 1095.18679187 518.58561275 1092.9375 520.5 C1084.90964931 527.49522259 1077.72169105 535.08046169 1071.09765625 543.41015625 C1069.2254165 545.72169248 1067.2789073 547.88957841 1065.25 550.0625 C1035.36909446 583.49361214 1016.73154994 626.5690785 1004 669 C1003.70867188 669.9679248 1003.41734375 670.93584961 1003.1171875 671.93310547 C1002.40947526 674.28815023 1001.70368537 676.64374949 1001 679 C1000.34 679 999.68 679 999 679 C998.76925781 678.23147705 998.53851562 677.4629541 998.30078125 676.67114258 C982.83753368 625.40329533 961.21445725 578.42611084 924.43359375 538.77734375 C923 537 923 537 923 535 C922.34 535 921.68 535 921 535 C919.58984375 533.56640625 919.58984375 533.56640625 917.9375 531.5625 C863.53082929 467.67416883 775.26960806 433.15253907 696 413 C694.86127441 412.70818848 693.72254883 412.41637695 692.54931641 412.11572266 C643.09863566 399.60158756 592.08313225 392.47917302 541.21704102 389.14715576 C539.00683637 389.00045376 536.79738832 388.8449468 534.58789062 388.68798828 C482.41740807 385.05400012 429.16223835 385.53491924 377 389 C376.1825531 389.05327454 375.3651062 389.10654907 374.52288818 389.16143799 C350.93047982 390.70828209 327.46539419 393.12664163 304 396 C304.59615238 392.0035711 305.44419091 388.26950329 306.671875 384.421875 C323.39814908 330.8418545 324.36625767 278.11964066 302 226 C301.67692871 225.24541504 301.35385742 224.49083008 301.02099609 223.71337891 C284.44488678 185.62922645 255.66533034 150.77624882 224 124 C223.04480469 123.15566406 222.08960938 122.31132813 221.10546875 121.44140625 C158.18216612 66.0406198 78.74383677 28.68553709 0 2 C0 1.34 0 0.68 0 0 Z " fill="currentColor" transform="translate(0,0)"/>
</svg>
